<?xml version="1.0" encoding="UTF-8"?>
<svg id="Layer_1" data-name="Layer 1" xmlns="http://www.w3.org/2000/svg" viewBox="0 0 1280 1000">
  <rect width="1280" height="1000" fill="#f5f107"/>
  <path d="m1280,0H0v742.67c18.08-19.28,45.49-41.75,79.55-42.55,36.82-.87,59.45,24.11,87.11,42.55,84.87,56.57,220.37,53.75,250.67,8,34.2-51.64-73.2-146.57-37.33-193.33,24.4-31.81,105.03-28.18,157.33-8,29.66,11.44,45.84,26.51,82.67,29.33,17.85,1.37,60.59,4.64,73.33-16,24.98-40.46-94.03-126.4-66.67-192,6.03-14.45,20.6-31.37,35.61-31.08,32.31.63,33.42,80.39,96.39,115.08,21.2,11.68,54.98,21.31,70.37,7.51,17.62-15.8-2.64-49.93,17.63-71.51,12.47-13.28,35.75-16.96,53.33-12,39.73,11.2,34.27,61.91,84,97.33,24.44,17.41,62.84,31.57,75.28,19.25,23.83-23.63-69.55-122.99-37.94-167.25,15.48-21.68,55.68-22.77,80-17.33,42.92,9.59,51.15,42.79,78.67,45.33,21.31,1.97,53.8-14.5,100-104V0Z" fill="#fe4141"/>
</svg>